<?xml version="1.0" encoding="utf-8"?>
<!-- Generator: Adobe Illustrator 23.0.2, SVG Export Plug-In . SVG Version: 6.00 Build 0)  -->
<svg version="1.1" id="Capa_1" xmlns="http://www.w3.org/2000/svg" xmlns:xlink="http://www.w3.org/1999/xlink" x="0px" y="0px"
	 viewBox="0 0 100 100" style="enable-background:new 0 0 100 100;" xml:space="preserve">
<style type="text/css">
	.st0{fill:#DF242B;}
</style>
<g>
	<path id="Trazado_73" class="st0" d="M11.95,15h15.91c14.66,0,19.03,7.02,19.03,20.85v26.52C46.89,73.49,44.8,85,28.22,85H11.95V15
		z M24.24,74.76h3.05c6.26,0,7.1-4.17,7.1-10.49V34.59c0-5.72-1.09-9.26-7.21-9.26h-2.95L24.24,74.76z"/>
	<path id="Trazado_74" d="M64.97,67.62L62.92,85h-12.5l10.8-70h17.67l11.16,70H77.24l-2.33-17.38L64.97,67.62z M73.6,56.49
		c-1.25-10.29-2.69-22.19-3.47-29.97h-0.46c-0.29,5.56-2.18,20.64-3.33,29.97H73.6z"/>
</g>
</svg>
